<?xml version="1.0" encoding="UTF-8" standalone="yes"?>
<svg xmlns="http://www.w3.org/2000/svg" xmlns:xlink="http://www.w3.org/1999/xlink" width="60px" height="60px" viewBox="0 0 60 60" version="1.1" fill="#000000">
  <g id="surface455278">
    <path style=" stroke:none;fill-rule:nonzero;fill:#ffffff;fill-opacity:1;" d="M 48 6 C 44.6875 6 42 8.6875 42 12 C 42 13.011719 42.257812 14.007812 42.75 14.894531 L 31.101562 28 L 17.652344 28 C 16.804688 25.605469 14.542969 24 12 24 C 8.6875 24 6 26.6875 6 30 C 6 33.3125 8.6875 36 12 36 C 14.539062 35.996094 16.800781 34.394531 17.648438 32 L 31.101562 32 L 42.746094 45.101562 C 42.257812 45.988281 42 46.988281 42 48 C 42 51.3125 44.6875 54 48 54 C 51.3125 54 54 51.3125 54 48 C 54 44.6875 51.3125 42 48 42 C 47.222656 42 46.457031 42.152344 45.738281 42.445312 L 34.675781 30 L 45.738281 17.554688 C 46.457031 17.847656 47.222656 18 48 18 C 51.3125 18 54 15.3125 54 12 C 54 8.6875 51.3125 6 48 6 Z M 48 6 "/>
  </g>
</svg>
